<svg width="19" height="20" viewBox="0 0 19 20" fill="none" xmlns="http://www.w3.org/2000/svg">
<g clip-path="url(#clip0_1_247)">
<path d="M10.8299 9.39972L10.7196 9.35069H10.5188H10.375L10.2359 9.66373L10.2351 9.66561L10.8299 9.39972ZM10.8299 9.39972L10.5884 9.5071L10.7662 9.90736L10.8299 9.39972ZM10.5711 10.0507L10.2351 9.90136L10.1476 9.86247L10.0639 10.0507H10.5711ZM10.5711 10.0507H10.2351V10.4358M10.5711 10.0507L10.2351 10.4358M10.2351 10.4358L10.2359 10.4377L10.2351 10.4358ZM10.7248 10.2873L10.5884 10.5943L10.7248 10.2873ZM10.7248 10.2873V10.655V10.7484V10.7507V10.2873ZM10.83 9.39972L10.7196 9.35069L10.83 9.39972Z" fill="black" stroke="#F97316" stroke-width="1.4"/>
<path d="M3.69153 15.2937V7.1875C3.69153 6.99943 3.80228 6.82901 3.97415 6.75263L10.6366 3.7915C10.7597 3.73682 10.9001 3.73682 11.0232 3.7915L17.6857 6.75263C17.8576 6.82901 17.9683 6.99943 17.9683 7.1875V15.2937C17.9683 15.4818 17.8576 15.6522 17.6857 15.7286L11.0232 18.6897C10.9001 18.7443 10.7597 18.7443 10.6366 18.6897L3.97415 15.7286C3.80228 15.6522 3.69153 15.4818 3.69153 15.2937Z" stroke="#F97316" stroke-width="1.4" stroke-linecap="round" stroke-linejoin="round"/>
<path d="M7.26074 5.29199L14.1165 8.33901C14.2884 8.41539 14.3991 8.58582 14.3991 8.77388V11.6372" stroke="#F97316" stroke-width="1.4" stroke-linecap="round" stroke-linejoin="round"/>
</g>
<defs>
<clipPath id="clip0_1_247">
<rect width="18.49" height="18.49" fill="white" transform="translate(0.449951 0.586914)"/>
</clipPath>
</defs>
</svg>
