<svg width="22" height="22" viewBox="0 0 22 22" fill="none" xmlns="http://www.w3.org/2000/svg">
<path d="M16.138 17.8583H5.32119C5.03149 17.8583 4.79663 17.6234 4.79663 17.3337V8.76582C4.79663 8.47611 5.03149 8.24126 5.32119 8.24126H7.74085C8.35505 8.24126 8.92421 7.919 9.24021 7.39233L11.6098 3.44291C12.1212 2.59073 13.3255 2.50972 13.9463 3.28576C14.2389 3.65154 14.3333 4.13773 14.1986 4.58641L13.3048 7.56596C13.2038 7.90253 13.4559 8.24126 13.8072 8.24126H17.8071C18.96 8.24126 19.7974 9.33759 19.494 10.4498L17.825 16.5697C17.6175 17.3305 16.9266 17.8583 16.138 17.8583Z" stroke="#F97316" stroke-width="1.4" stroke-linecap="round"/>
<path d="M7.85657 17.8582V8.24121" stroke="#F97316" stroke-width="1.4" stroke-linecap="round" stroke-linejoin="round"/>
</svg>
