<svg width="22" height="22" viewBox="0 0 22 22" fill="none" xmlns="http://www.w3.org/2000/svg">
<g clip-path="url(#clip0_1_224)">
<path d="M14.9113 15.5923L15.6144 17.2003C15.6144 17.2003 18.7783 17.9142 18.7783 19.6123C18.7783 20.8184 17.3721 20.8184 17.3721 20.8184H13.6223L11.7767 19.729" stroke="#F97316" stroke-width="1.6" stroke-linecap="round" stroke-linejoin="round"/>
<path d="M10.6937 15.5923L9.99059 17.2003C9.99059 17.2003 6.82672 17.9142 6.82672 19.6123C6.82672 20.8184 8.23288 20.8184 8.23288 20.8184H9.932L11.7776 19.729L14.0333 18.2038" stroke="#F97316" stroke-width="1.6" stroke-linecap="round" stroke-linejoin="round"/>
<path d="M5.41986 16.3967C5.41986 16.3967 7.17757 15.9948 8.23219 15.5927C9.28682 9.96463 12.4507 10.3666 12.8022 10.3666C13.1538 10.3666 16.3176 9.96463 17.3723 15.5927C18.4269 15.9948 20.1846 16.3967 20.1846 16.3967" stroke="#F97316" stroke-width="1.6" stroke-linecap="round" stroke-linejoin="round"/>
<path d="M12.8016 8.61604C13.7077 8.61604 14.4421 7.83564 14.4421 6.87296C14.4421 5.91029 13.7077 5.12988 12.8016 5.12988C11.8955 5.12988 11.1611 5.91029 11.1611 6.87296C11.1611 7.83564 11.8955 8.61604 12.8016 8.61604Z" stroke="#F97316" stroke-width="1.6" stroke-linecap="round" stroke-linejoin="round"/>
</g>
<defs>
<clipPath id="clip0_1_224">
<rect width="21" height="21" fill="white" transform="translate(0.876831 0.586914)"/>
</clipPath>
</defs>
</svg>
