<svg width="10" height="10" viewBox="0 0 19 19" fill="none" xmlns="http://www.w3.org/2000/svg">
<g id="Play">
<path id="Vector" d="M3.77338 15.7968V2.96218C3.77338 2.40784 4.3855 2.07379 4.85136 2.37172L14.8836 8.78905C15.3152 9.06531 15.3152 9.69369 14.8836 9.96995L4.85136 16.3873C4.3855 16.6852 3.77338 16.3512 3.77338 15.7968Z" fill="#313131"/>
<path id="Vector_2" d="M4.04418 15.7965C4.04418 15.5437 4.04418 15.2891 4.04418 15.0363C4.04418 14.3917 4.04418 13.7471 4.04418 13.1024C4.04418 12.2267 4.04418 11.351 4.04418 10.477C4.04418 9.53807 4.04418 8.59912 4.04418 7.65837C4.04418 6.82055 4.04418 5.98272 4.04418 5.14309C4.04418 4.57069 4.04418 4.0001 4.04418 3.42771C4.04418 3.29409 4.04418 3.15866 4.04418 3.02504C4.04418 3.00518 4.04418 2.98351 4.04418 2.96365C4.04418 2.95462 4.04418 2.95101 4.04418 2.93837C4.04418 2.92212 4.04598 2.90768 4.04779 2.89142C4.04418 2.94921 4.04598 2.90045 4.04959 2.8842C4.05862 2.8517 4.06765 2.8192 4.07668 2.7885C4.05862 2.84267 4.07126 2.79753 4.08029 2.78309C4.09293 2.76142 4.10376 2.73975 4.11821 2.71808C4.12543 2.70544 4.13446 2.69461 4.14168 2.68377C4.10918 2.72892 4.13085 2.69822 4.13988 2.68919C4.16516 2.66391 4.18863 2.64044 4.21571 2.61696C4.17238 2.65488 4.20488 2.62419 4.21933 2.61516C4.23377 2.60613 4.24822 2.5971 4.26447 2.58807C4.27711 2.58085 4.28975 2.57543 4.30239 2.56821C4.35475 2.53932 4.26266 2.57905 4.31502 2.56279C4.34933 2.55377 4.38183 2.54293 4.41614 2.53571C4.47753 2.51946 4.38003 2.53029 4.41795 2.53571C4.4342 2.53752 4.45406 2.5339 4.47031 2.5339C4.48476 2.5339 4.4992 2.5339 4.51365 2.53571C4.51726 2.53571 4.58407 2.54835 4.54254 2.53752C4.4992 2.52668 4.56962 2.54474 4.57143 2.54474C4.5931 2.55015 4.61477 2.55738 4.63463 2.5646C4.68157 2.57905 4.64366 2.56821 4.63282 2.56279C4.65449 2.57363 4.67435 2.58446 4.69421 2.5953C4.70144 2.59891 4.70866 2.60432 4.71408 2.60794C4.71588 2.60974 4.71769 2.60974 4.71949 2.61155C4.74477 2.6278 4.77186 2.64405 4.79714 2.6603C4.93256 2.74697 5.06618 2.83184 5.20161 2.91851C5.72705 3.25436 6.25431 3.59202 6.77975 3.92788C7.52008 4.40276 8.2622 4.87585 9.00252 5.35074C9.78799 5.85271 10.5735 6.35649 11.3607 6.85847C12.0378 7.29182 12.7132 7.72338 13.3903 8.15674C13.7929 8.41495 14.1956 8.67316 14.6001 8.92956C14.6398 8.95484 14.6777 8.98012 14.7174 9.00359C14.7265 9.00901 14.7355 9.01443 14.7445 9.01984C14.7463 9.01984 14.7481 9.02165 14.7481 9.02165C14.7608 9.03068 14.7752 9.03971 14.7879 9.04873C14.7463 9.01623 14.7861 9.04873 14.7951 9.05776C14.8131 9.07763 14.8312 9.09568 14.8493 9.11374C14.8601 9.12457 14.8709 9.15346 14.8475 9.11193C14.8547 9.12457 14.8637 9.13541 14.8709 9.14805C14.8818 9.1661 14.8908 9.18596 14.9016 9.20583C14.9088 9.22027 14.9143 9.25097 14.8998 9.20041C14.9107 9.23472 14.9215 9.26722 14.9305 9.30333C14.9341 9.31778 14.9359 9.33042 14.9377 9.34486C14.9269 9.27625 14.9359 9.34125 14.9359 9.3575C14.9359 9.37736 14.9269 9.4839 14.9377 9.41167C14.9323 9.44598 14.9251 9.48209 14.9143 9.5146C14.9107 9.52904 14.9052 9.54168 14.8998 9.55432C14.9179 9.49834 14.9052 9.54349 14.8962 9.55793C14.8872 9.57418 14.88 9.59043 14.8691 9.60488C14.8637 9.6121 14.8222 9.66988 14.8601 9.62113C14.8366 9.65002 14.8095 9.6753 14.7824 9.70238C14.7752 9.70961 14.7427 9.73489 14.7824 9.70419C14.768 9.71502 14.759 9.72044 14.7427 9.73128C14.7409 9.73128 14.7409 9.73308 14.7391 9.73308C14.7319 9.7385 14.7229 9.74392 14.7156 9.74753C14.4087 9.94434 14.1017 10.1394 13.7948 10.3362C13.1754 10.7316 12.5561 11.1289 11.9367 11.5243C11.1585 12.0209 10.3821 12.5192 9.60381 13.0158C8.84001 13.5051 8.07441 13.9944 7.31062 14.4838C6.71294 14.8666 6.11527 15.2494 5.5176 15.6304C5.25036 15.8019 4.98493 15.9753 4.71588 16.1432C4.68699 16.1612 4.6581 16.1775 4.6274 16.1937C4.67255 16.1703 4.64004 16.1883 4.62921 16.1919C4.61115 16.1974 4.5931 16.2028 4.57504 16.2082C4.55698 16.2136 4.53893 16.2154 4.52087 16.2208C4.56962 16.2064 4.54796 16.219 4.52809 16.219C4.49198 16.2208 4.45767 16.2208 4.42156 16.219C4.371 16.2172 4.41975 16.219 4.43059 16.2208C4.41073 16.2172 4.38906 16.2136 4.36919 16.2082C4.35114 16.2046 4.27349 16.1757 4.30239 16.1883C4.33128 16.201 4.25544 16.163 4.24099 16.154C4.22655 16.145 4.2121 16.1323 4.19766 16.1251C4.16335 16.1089 4.23919 16.1667 4.19405 16.1215C4.16877 16.0962 4.14349 16.0728 4.12001 16.0457C4.15793 16.0872 4.11279 16.033 4.10015 16.015C4.08932 15.9969 4.08029 15.9771 4.06946 15.959C4.06223 15.9446 4.05862 15.9157 4.07126 15.9644C4.06223 15.9283 4.04959 15.894 4.04056 15.8579C4.03695 15.8434 4.03876 15.8091 4.04056 15.8615C4.04598 15.8434 4.04418 15.82 4.04418 15.7965C4.04237 15.6557 3.92139 15.5184 3.77333 15.5256C3.62887 15.5329 3.50067 15.6448 3.50248 15.7965C3.50789 16.154 3.70291 16.4989 4.02973 16.6596C4.3385 16.8113 4.69602 16.8022 4.99034 16.6199C5.05715 16.5783 5.12396 16.535 5.18897 16.4917C5.62774 16.2118 6.06652 15.9301 6.50529 15.6502C7.21131 15.1988 7.91732 14.7474 8.62334 14.296C9.42324 13.7832 10.225 13.2722 11.0249 12.7594C11.7544 12.2935 12.4838 11.8258 13.2133 11.36C13.7045 11.0458 14.1974 10.7316 14.6886 10.4156C14.7915 10.3506 14.8944 10.2838 14.9973 10.2188C15.0948 10.1556 15.1869 10.0834 15.2591 9.99129C15.4957 9.69336 15.539 9.29792 15.3783 8.95303C15.279 8.74177 15.1021 8.60815 14.9143 8.48717C14.7698 8.39508 14.6236 8.30119 14.4791 8.2091C13.9284 7.857 13.3776 7.50489 12.8287 7.15279C12.0703 6.66707 11.3102 6.18134 10.5518 5.69562C9.75368 5.18642 8.95738 4.67542 8.15928 4.16622C7.49299 3.74009 6.8267 3.31395 6.16041 2.88781C5.79567 2.65488 5.43273 2.42195 5.06799 2.18902C4.82061 2.03012 4.54615 1.94887 4.25002 2.01568C3.79319 2.1186 3.50248 2.53932 3.50067 2.99435C3.50067 3.34645 3.50067 3.69675 3.50067 4.04885C3.50067 4.77112 3.50067 5.49338 3.50067 6.21565C3.50067 7.13293 3.50067 8.0484 3.50067 8.96567C3.50067 9.90642 3.50067 10.849 3.50067 11.7897C3.50067 12.586 3.50067 13.3823 3.50067 14.1804C3.50067 14.6571 3.50067 15.132 3.50067 15.6087C3.50067 15.6719 3.50067 15.7351 3.50067 15.8001C3.50067 15.9409 3.62526 16.0782 3.77152 16.071C3.91959 16.0601 4.04418 15.9482 4.04418 15.7965Z" fill="#313131"/>
</g>
</svg>
